<svg width="64" height="64" viewbox="0 0 64 64" xmlns="http://www.w3.org/2000/svg"><path d="M30.478 33.522a1.177 1.177 0 010 1.663L16.016 49.646h11.279a1.177 1.177 0 010 2.353H13.177l-.12-.006h-.007l.127.006a1.18 1.18 0 01-.641-.19l-.051-.035a.507.507 0 01-.038-.028l-.01-.009a1.184 1.184 0 01-.229-.244l-.01-.02a.662.662 0 01-.048-.074l-.015-.03a1.037 1.037 0 01-.08-.188l-.01-.041a.728.728 0 01-.02-.075l-.01-.059a1.087 1.087 0 01-.015-.182V36.705a1.177 1.177 0 012.353 0v11.278l14.462-14.461a1.177 1.177 0 011.663 0zM50.823 12c.65 0 1.177.527 1.177 1.177l-.001.016.001 14.1a1.177 1.177 0 01-2.353 0l-.001-11.276-14.462 14.462c-.228.229-.53.344-.83.344a1.177 1.177 0 01-.833-2.007l14.462-14.464H36.706a1.177 1.177 0 010-2.352h14.117z" fill-rule="nonzero"/></svg>
